<svg xmlns="http://www.w3.org/2000/svg" xmlns:xlink="http://www.w3.org/1999/xlink" width="920" zoomAndPan="magnify" viewBox="90 190 200 150" height="460" preserveAspectRatio="xMidYMid meet" version="1.0"><defs><g/><clipPath id="67394dca57"><path d="M 46 217 L 111 217 L 111 282 L 46 282 Z M 46 217 " clip-rule="nonzero"/></clipPath><clipPath id="3715e8fae1"><path d="M 120.601562 232.332031 L 95.585938 291.78125 L 36.136719 266.769531 L 61.152344 207.316406 Z M 120.601562 232.332031 " clip-rule="nonzero"/></clipPath><clipPath id="31efe7ddda"><path d="M 120.601562 232.332031 L 95.585938 291.78125 L 36.136719 266.769531 L 61.152344 207.316406 Z M 120.601562 232.332031 " clip-rule="nonzero"/></clipPath><clipPath id="6c3822f0ac"><path d="M 120.601562 232.332031 L 95.585938 291.78125 L 36.136719 266.769531 L 61.152344 207.316406 Z M 120.601562 232.332031 " clip-rule="nonzero"/></clipPath><clipPath id="6dd3e15afd"><path d="M 119.996094 217.097656 L 184.496094 217.097656 L 184.496094 281.597656 L 119.996094 281.597656 Z M 119.996094 217.097656 " clip-rule="nonzero"/></clipPath><clipPath id="29c4251299"><path d="M 193.902344 217.332031 L 258.402344 217.332031 L 258.402344 281.832031 L 193.902344 281.832031 Z M 193.902344 217.332031 " clip-rule="nonzero"/></clipPath><clipPath id="e16ff13cc7"><path d="M 274.0625 217.332031 L 338.5625 217.332031 L 338.5625 281.832031 L 274.0625 281.832031 Z M 274.0625 217.332031 " clip-rule="nonzero"/></clipPath></defs><g clip-path="url(#67394dca57)"><g clip-path="url(#3715e8fae1)"><g clip-path="url(#31efe7ddda)"><g clip-path="url(#6c3822f0ac)"><path fill="#000000" d="M 48.644531 237.042969 C 55.539062 220.65625 74.492188 212.929688 90.878906 219.824219 C 107.261719 226.71875 114.988281 245.671875 108.09375 262.058594 C 101.199219 278.441406 82.246094 286.171875 65.863281 279.277344 C 49.476562 272.378906 41.75 253.429688 48.644531 237.042969 Z M 107.65625 261.871094 C 114.453125 245.722656 106.84375 227.058594 90.691406 220.261719 C 74.539062 213.46875 55.878906 221.074219 49.082031 237.226562 C 42.285156 253.378906 49.894531 272.039062 66.046875 278.835938 C 82.199219 285.632812 100.859375 278.023438 107.65625 261.871094 Z M 107.65625 261.871094 " fill-opacity="1" fill-rule="nonzero"/></g></g></g></g><path stroke-linecap="butt" transform="matrix(-0.596744, 0.454309, -0.454309, -0.596744, 92.859622, 221.034477)" fill="none" stroke-linejoin="miter" d="M -0.00176301 0.501558 L 76.438799 0.49677 " stroke="#000000" stroke-width="0.5" stroke-opacity="1" stroke-miterlimit="4"/><g clip-path="url(#6dd3e15afd)"><path fill="#000000" d="M 152.246094 281.597656 C 134.46875 281.597656 119.996094 267.125 119.996094 249.347656 C 119.996094 231.574219 134.46875 217.097656 152.246094 217.097656 C 170.023438 217.097656 184.496094 231.570312 184.496094 249.347656 C 184.496094 267.125 170.023438 281.597656 152.246094 281.597656 Z M 152.246094 217.574219 C 134.726562 217.574219 120.472656 231.828125 120.472656 249.347656 C 120.472656 266.871094 134.726562 281.121094 152.246094 281.121094 C 169.769531 281.121094 184.019531 266.871094 184.019531 249.347656 C 184.019531 231.828125 169.769531 217.574219 152.246094 217.574219 Z M 152.246094 217.574219 " fill-opacity="1" fill-rule="nonzero"/></g><g clip-path="url(#29c4251299)"><path fill="#000000" d="M 226.152344 281.832031 C 208.375 281.832031 193.902344 267.359375 193.902344 249.582031 C 193.902344 231.804688 208.375 217.332031 226.152344 217.332031 C 243.929688 217.332031 258.402344 231.804688 258.402344 249.582031 C 258.402344 267.359375 243.929688 281.832031 226.152344 281.832031 Z M 226.152344 217.808594 C 208.628906 217.808594 194.378906 232.0625 194.378906 249.582031 C 194.378906 267.105469 208.628906 281.355469 226.152344 281.355469 C 243.675781 281.355469 257.925781 267.105469 257.925781 249.582031 C 257.925781 232.0625 243.675781 217.808594 226.152344 217.808594 Z M 226.152344 217.808594 " fill-opacity="1" fill-rule="nonzero"/></g><g clip-path="url(#e16ff13cc7)"><path fill="#000000" d="M 306.3125 281.832031 C 288.535156 281.832031 274.0625 267.359375 274.0625 249.582031 C 274.0625 231.804688 288.535156 217.332031 306.3125 217.332031 C 324.089844 217.332031 338.5625 231.804688 338.5625 249.582031 C 338.5625 267.359375 324.089844 281.832031 306.3125 281.832031 Z M 306.3125 217.808594 C 288.789062 217.808594 274.539062 232.0625 274.539062 249.582031 C 274.539062 267.105469 288.789062 281.355469 306.3125 281.355469 C 323.835938 281.355469 338.085938 267.105469 338.085938 249.582031 C 338.085938 232.0625 323.835938 217.808594 306.3125 217.808594 Z M 306.3125 217.808594 " fill-opacity="1" fill-rule="nonzero"/></g><g fill="#000000" fill-opacity="1"><g transform="translate(65.326078, 309.542411)"><g><path d="M 6.875 -5.265625 C 6.875 -4.847656 6.710938 -4.457031 6.390625 -4.09375 C 6.066406 -3.738281 5.570312 -3.488281 4.90625 -3.34375 L 6 -1.03125 C 6.132812 -0.738281 6.28125 -0.523438 6.4375 -0.390625 C 6.59375 -0.253906 6.816406 -0.1875 7.109375 -0.1875 L 7.046875 0 L 5.453125 0 L 3.90625 -3.28125 C 3.664062 -3.300781 3.507812 -3.316406 3.4375 -3.328125 C 3.414062 -3.328125 3.347656 -3.332031 3.234375 -3.34375 L 2.65625 -1.3125 C 2.632812 -1.257812 2.609375 -1.164062 2.578125 -1.03125 C 2.546875 -0.894531 2.53125 -0.78125 2.53125 -0.6875 C 2.53125 -0.476562 2.601562 -0.34375 2.75 -0.28125 C 2.894531 -0.21875 3.082031 -0.1875 3.3125 -0.1875 L 3.265625 0 L 0.25 0 L 0.296875 -0.1875 C 0.679688 -0.1875 0.957031 -0.234375 1.125 -0.328125 C 1.300781 -0.421875 1.4375 -0.625 1.53125 -0.9375 L 2.796875 -5.296875 C 2.859375 -5.535156 2.898438 -5.707031 2.921875 -5.8125 C 2.953125 -5.914062 2.96875 -5.992188 2.96875 -6.046875 C 2.96875 -6.265625 2.894531 -6.40625 2.75 -6.46875 C 2.601562 -6.53125 2.398438 -6.5625 2.140625 -6.5625 L 2.1875 -6.75 L 4.578125 -6.75 C 5.328125 -6.75 5.894531 -6.609375 6.28125 -6.328125 C 6.675781 -6.054688 6.875 -5.703125 6.875 -5.265625 Z M 4.09375 -6.34375 L 3.328125 -3.640625 C 3.523438 -3.597656 3.734375 -3.578125 3.953125 -3.578125 C 4.359375 -3.578125 4.695312 -3.65625 4.96875 -3.8125 C 5.238281 -3.976562 5.4375 -4.191406 5.5625 -4.453125 C 5.695312 -4.710938 5.765625 -4.984375 5.765625 -5.265625 C 5.765625 -5.640625 5.65625 -5.921875 5.4375 -6.109375 C 5.21875 -6.296875 4.929688 -6.390625 4.578125 -6.390625 C 4.472656 -6.390625 4.3125 -6.375 4.09375 -6.34375 Z M 4.09375 -6.34375 "/></g></g></g><g fill="#000000" fill-opacity="1"><g transform="translate(72.52139, 309.542411)"><g/></g></g><g fill="#000000" fill-opacity="1"><g transform="translate(75.020402, 309.542411)"><g/></g></g><g fill="#000000" fill-opacity="1"><g transform="translate(77.525296, 309.542411)"><g><path d="M 6.09375 -4.203125 L 0.8125 -4.203125 L 0.8125 -4.8125 L 6.09375 -4.8125 Z M 6.09375 -1.90625 L 0.8125 -1.90625 L 0.8125 -2.515625 L 6.09375 -2.515625 Z M 6.09375 -1.90625 "/></g></g></g><g fill="#000000" fill-opacity="1"><g transform="translate(84.192669, 309.542411)"><g/></g></g><g fill="#000000" fill-opacity="1"><g transform="translate(86.691681, 309.542411)"><g><path d="M 2.890625 -6.90625 C 3.160156 -6.90625 3.421875 -6.84375 3.671875 -6.71875 C 3.921875 -6.601562 4.125 -6.425781 4.28125 -6.1875 C 4.4375 -5.957031 4.515625 -5.675781 4.515625 -5.34375 C 4.515625 -4.957031 4.421875 -4.597656 4.234375 -4.265625 C 4.046875 -3.941406 3.757812 -3.582031 3.375 -3.1875 C 2.988281 -2.800781 2.320312 -2.164062 1.375 -1.28125 L 0.75 -0.703125 L 2.5 -0.703125 C 2.820312 -0.703125 3.0625 -0.75 3.21875 -0.84375 C 3.375 -0.9375 3.507812 -1.09375 3.625 -1.3125 L 3.8125 -1.3125 L 3.25 0 L -0.203125 0 L -0.234375 -0.1875 L 1.578125 -1.84375 C 2.273438 -2.488281 2.800781 -3.046875 3.15625 -3.515625 C 3.507812 -3.992188 3.6875 -4.46875 3.6875 -4.9375 C 3.6875 -5.300781 3.566406 -5.597656 3.328125 -5.828125 C 3.097656 -6.066406 2.816406 -6.1875 2.484375 -6.1875 C 2.273438 -6.1875 2.066406 -6.128906 1.859375 -6.015625 C 1.648438 -5.910156 1.460938 -5.742188 1.296875 -5.515625 L 1.0625 -5.515625 C 1.226562 -5.921875 1.46875 -6.253906 1.78125 -6.515625 C 2.09375 -6.773438 2.460938 -6.90625 2.890625 -6.90625 Z M 2.890625 -6.90625 "/></g></g></g><g fill="#000000" fill-opacity="1"><g transform="translate(72.729866, 312.442408)"><g><path d="M 1.734375 -4.140625 C 1.890625 -4.140625 2.039062 -4.101562 2.1875 -4.03125 C 2.34375 -3.957031 2.46875 -3.847656 2.5625 -3.703125 C 2.65625 -3.566406 2.703125 -3.398438 2.703125 -3.203125 C 2.703125 -2.972656 2.644531 -2.757812 2.53125 -2.5625 C 2.425781 -2.363281 2.257812 -2.144531 2.03125 -1.90625 C 1.800781 -1.675781 1.398438 -1.296875 0.828125 -0.765625 L 0.453125 -0.421875 L 1.5 -0.421875 C 1.695312 -0.421875 1.835938 -0.445312 1.921875 -0.5 C 2.015625 -0.5625 2.097656 -0.660156 2.171875 -0.796875 L 2.296875 -0.796875 L 1.953125 0 L -0.125 0 L -0.140625 -0.109375 L 0.953125 -1.109375 C 1.367188 -1.492188 1.679688 -1.828125 1.890625 -2.109375 C 2.097656 -2.390625 2.203125 -2.671875 2.203125 -2.953125 C 2.203125 -3.179688 2.132812 -3.363281 2 -3.5 C 1.863281 -3.632812 1.695312 -3.703125 1.5 -3.703125 C 1.363281 -3.703125 1.234375 -3.671875 1.109375 -3.609375 C 0.984375 -3.546875 0.875 -3.445312 0.78125 -3.3125 L 0.640625 -3.3125 C 0.742188 -3.550781 0.882812 -3.75 1.0625 -3.90625 C 1.25 -4.0625 1.472656 -4.140625 1.734375 -4.140625 Z M 1.734375 -4.140625 "/></g></g></g><g fill="#000000" fill-opacity="1"><g transform="translate(138.969987, 309.542411)"><g><path d="M 6.875 -5.265625 C 6.875 -4.847656 6.710938 -4.457031 6.390625 -4.09375 C 6.066406 -3.738281 5.570312 -3.488281 4.90625 -3.34375 L 6 -1.03125 C 6.132812 -0.738281 6.28125 -0.523438 6.4375 -0.390625 C 6.59375 -0.253906 6.816406 -0.1875 7.109375 -0.1875 L 7.046875 0 L 5.453125 0 L 3.90625 -3.28125 C 3.664062 -3.300781 3.507812 -3.316406 3.4375 -3.328125 C 3.414062 -3.328125 3.347656 -3.332031 3.234375 -3.34375 L 2.65625 -1.3125 C 2.632812 -1.257812 2.609375 -1.164062 2.578125 -1.03125 C 2.546875 -0.894531 2.53125 -0.78125 2.53125 -0.6875 C 2.53125 -0.476562 2.601562 -0.34375 2.75 -0.28125 C 2.894531 -0.21875 3.082031 -0.1875 3.3125 -0.1875 L 3.265625 0 L 0.25 0 L 0.296875 -0.1875 C 0.679688 -0.1875 0.957031 -0.234375 1.125 -0.328125 C 1.300781 -0.421875 1.4375 -0.625 1.53125 -0.9375 L 2.796875 -5.296875 C 2.859375 -5.535156 2.898438 -5.707031 2.921875 -5.8125 C 2.953125 -5.914062 2.96875 -5.992188 2.96875 -6.046875 C 2.96875 -6.265625 2.894531 -6.40625 2.75 -6.46875 C 2.601562 -6.53125 2.398438 -6.5625 2.140625 -6.5625 L 2.1875 -6.75 L 4.578125 -6.75 C 5.328125 -6.75 5.894531 -6.609375 6.28125 -6.328125 C 6.675781 -6.054688 6.875 -5.703125 6.875 -5.265625 Z M 4.09375 -6.34375 L 3.328125 -3.640625 C 3.523438 -3.597656 3.734375 -3.578125 3.953125 -3.578125 C 4.359375 -3.578125 4.695312 -3.65625 4.96875 -3.8125 C 5.238281 -3.976562 5.4375 -4.191406 5.5625 -4.453125 C 5.695312 -4.710938 5.765625 -4.984375 5.765625 -5.265625 C 5.765625 -5.640625 5.65625 -5.921875 5.4375 -6.109375 C 5.21875 -6.296875 4.929688 -6.390625 4.578125 -6.390625 C 4.472656 -6.390625 4.3125 -6.375 4.09375 -6.34375 Z M 4.09375 -6.34375 "/></g></g></g><g fill="#000000" fill-opacity="1"><g transform="translate(146.165299, 309.542411)"><g/></g></g><g fill="#000000" fill-opacity="1"><g transform="translate(148.66431, 309.542411)"><g/></g></g><g fill="#000000" fill-opacity="1"><g transform="translate(151.169205, 309.542411)"><g><path d="M 6.09375 -4.203125 L 0.8125 -4.203125 L 0.8125 -4.8125 L 6.09375 -4.8125 Z M 6.09375 -1.90625 L 0.8125 -1.90625 L 0.8125 -2.515625 L 6.09375 -2.515625 Z M 6.09375 -1.90625 "/></g></g></g><g fill="#000000" fill-opacity="1"><g transform="translate(157.836578, 309.542411)"><g/></g></g><g fill="#000000" fill-opacity="1"><g transform="translate(160.33559, 309.542411)"><g><path d="M 4.84375 -6.859375 L 3.5625 -2.390625 L 4.4375 -2.390625 L 4.234375 -1.71875 L 3.375 -1.71875 L 2.828125 0.15625 L 2.03125 0.15625 L 2.5625 -1.71875 L 0.140625 -1.71875 L 0.328125 -2.390625 L 4.484375 -6.859375 Z M 2.765625 -2.390625 L 3.640625 -5.4375 L 3.625 -5.453125 L 0.828125 -2.390625 Z M 2.765625 -2.390625 "/></g></g></g><g fill="#000000" fill-opacity="1"><g transform="translate(146.373775, 312.442408)"><g><path d="M 1.875 -4.140625 C 2.113281 -4.140625 2.3125 -4.066406 2.46875 -3.921875 C 2.632812 -3.773438 2.71875 -3.59375 2.71875 -3.375 C 2.71875 -3.125 2.625 -2.921875 2.4375 -2.765625 C 2.25 -2.609375 2.007812 -2.492188 1.71875 -2.421875 C 2.125 -2.203125 2.328125 -1.875 2.328125 -1.4375 C 2.328125 -1.164062 2.257812 -0.914062 2.125 -0.6875 C 1.988281 -0.457031 1.796875 -0.269531 1.546875 -0.125 C 1.304688 0.0195312 1.035156 0.09375 0.734375 0.09375 C 0.546875 0.09375 0.378906 0.0664062 0.234375 0.015625 C 0.0976562 -0.0234375 0.03125 -0.109375 0.03125 -0.234375 C 0.03125 -0.304688 0.0546875 -0.363281 0.109375 -0.40625 C 0.171875 -0.457031 0.238281 -0.484375 0.3125 -0.484375 C 0.375 -0.484375 0.4375 -0.46875 0.5 -0.4375 C 0.570312 -0.414062 0.660156 -0.378906 0.765625 -0.328125 C 0.859375 -0.273438 0.9375 -0.234375 1 -0.203125 C 1.0625 -0.179688 1.125 -0.171875 1.1875 -0.171875 C 1.3125 -0.171875 1.421875 -0.210938 1.515625 -0.296875 C 1.617188 -0.390625 1.703125 -0.515625 1.765625 -0.671875 C 1.828125 -0.828125 1.859375 -0.988281 1.859375 -1.15625 C 1.859375 -1.488281 1.753906 -1.742188 1.546875 -1.921875 C 1.347656 -2.097656 1.085938 -2.1875 0.765625 -2.1875 L 0.75 -2.296875 C 0.925781 -2.316406 1.125 -2.359375 1.34375 -2.421875 C 1.570312 -2.492188 1.769531 -2.601562 1.9375 -2.75 C 2.113281 -2.894531 2.203125 -3.070312 2.203125 -3.28125 C 2.203125 -3.457031 2.144531 -3.597656 2.03125 -3.703125 C 1.914062 -3.804688 1.785156 -3.859375 1.640625 -3.859375 C 1.515625 -3.859375 1.398438 -3.816406 1.296875 -3.734375 C 1.191406 -3.660156 1.101562 -3.566406 1.03125 -3.453125 L 0.9375 -3.484375 C 1.15625 -3.921875 1.46875 -4.140625 1.875 -4.140625 Z M 1.875 -4.140625 "/></g></g></g><g fill="#000000" fill-opacity="1"><g transform="translate(212.873047, 309.542411)"><g><path d="M 6.875 -5.265625 C 6.875 -4.847656 6.710938 -4.457031 6.390625 -4.09375 C 6.066406 -3.738281 5.570312 -3.488281 4.90625 -3.34375 L 6 -1.03125 C 6.132812 -0.738281 6.28125 -0.523438 6.4375 -0.390625 C 6.59375 -0.253906 6.816406 -0.1875 7.109375 -0.1875 L 7.046875 0 L 5.453125 0 L 3.90625 -3.28125 C 3.664062 -3.300781 3.507812 -3.316406 3.4375 -3.328125 C 3.414062 -3.328125 3.347656 -3.332031 3.234375 -3.34375 L 2.65625 -1.3125 C 2.632812 -1.257812 2.609375 -1.164062 2.578125 -1.03125 C 2.546875 -0.894531 2.53125 -0.78125 2.53125 -0.6875 C 2.53125 -0.476562 2.601562 -0.34375 2.75 -0.28125 C 2.894531 -0.21875 3.082031 -0.1875 3.3125 -0.1875 L 3.265625 0 L 0.25 0 L 0.296875 -0.1875 C 0.679688 -0.1875 0.957031 -0.234375 1.125 -0.328125 C 1.300781 -0.421875 1.4375 -0.625 1.53125 -0.9375 L 2.796875 -5.296875 C 2.859375 -5.535156 2.898438 -5.707031 2.921875 -5.8125 C 2.953125 -5.914062 2.96875 -5.992188 2.96875 -6.046875 C 2.96875 -6.265625 2.894531 -6.40625 2.75 -6.46875 C 2.601562 -6.53125 2.398438 -6.5625 2.140625 -6.5625 L 2.1875 -6.75 L 4.578125 -6.75 C 5.328125 -6.75 5.894531 -6.609375 6.28125 -6.328125 C 6.675781 -6.054688 6.875 -5.703125 6.875 -5.265625 Z M 4.09375 -6.34375 L 3.328125 -3.640625 C 3.523438 -3.597656 3.734375 -3.578125 3.953125 -3.578125 C 4.359375 -3.578125 4.695312 -3.65625 4.96875 -3.8125 C 5.238281 -3.976562 5.4375 -4.191406 5.5625 -4.453125 C 5.695312 -4.710938 5.765625 -4.984375 5.765625 -5.265625 C 5.765625 -5.640625 5.65625 -5.921875 5.4375 -6.109375 C 5.21875 -6.296875 4.929688 -6.390625 4.578125 -6.390625 C 4.472656 -6.390625 4.3125 -6.375 4.09375 -6.34375 Z M 4.09375 -6.34375 "/></g></g></g><g fill="#000000" fill-opacity="1"><g transform="translate(220.068359, 309.542411)"><g/></g></g><g fill="#000000" fill-opacity="1"><g transform="translate(222.567371, 309.542411)"><g/></g></g><g fill="#000000" fill-opacity="1"><g transform="translate(225.072265, 309.542411)"><g><path d="M 6.09375 -4.203125 L 0.8125 -4.203125 L 0.8125 -4.8125 L 6.09375 -4.8125 Z M 6.09375 -1.90625 L 0.8125 -1.90625 L 0.8125 -2.515625 L 6.09375 -2.515625 Z M 6.09375 -1.90625 "/></g></g></g><g fill="#000000" fill-opacity="1"><g transform="translate(231.739638, 309.542411)"><g/></g></g><g fill="#000000" fill-opacity="1"><g transform="translate(234.23865, 309.542411)"><g><path d="M 3.125 -6.90625 C 3.394531 -6.90625 3.65625 -6.84375 3.90625 -6.71875 C 4.164062 -6.601562 4.375 -6.4375 4.53125 -6.21875 C 4.695312 -6.007812 4.78125 -5.753906 4.78125 -5.453125 C 4.78125 -4.734375 4.257812 -4.175781 3.21875 -3.78125 C 3.4375 -3.53125 3.601562 -3.320312 3.71875 -3.15625 C 3.84375 -2.988281 3.945312 -2.796875 4.03125 -2.578125 C 4.113281 -2.367188 4.15625 -2.140625 4.15625 -1.890625 C 4.15625 -1.515625 4.050781 -1.171875 3.84375 -0.859375 C 3.644531 -0.546875 3.378906 -0.296875 3.046875 -0.109375 C 2.710938 0.0664062 2.367188 0.15625 2.015625 0.15625 C 1.703125 0.15625 1.398438 0.0859375 1.109375 -0.046875 C 0.828125 -0.191406 0.597656 -0.390625 0.421875 -0.640625 C 0.242188 -0.898438 0.15625 -1.191406 0.15625 -1.515625 C 0.15625 -1.960938 0.328125 -2.367188 0.671875 -2.734375 C 1.023438 -3.097656 1.53125 -3.410156 2.1875 -3.671875 C 1.894531 -4.015625 1.6875 -4.300781 1.5625 -4.53125 C 1.4375 -4.757812 1.375 -5.019531 1.375 -5.3125 C 1.375 -5.632812 1.457031 -5.914062 1.625 -6.15625 C 1.789062 -6.394531 2.007812 -6.578125 2.28125 -6.703125 C 2.550781 -6.835938 2.832031 -6.90625 3.125 -6.90625 Z M 2.078125 -5.671875 C 2.078125 -5.390625 2.171875 -5.109375 2.359375 -4.828125 C 2.546875 -4.546875 2.773438 -4.269531 3.046875 -4 C 3.390625 -4.15625 3.664062 -4.347656 3.875 -4.578125 C 4.082031 -4.816406 4.1875 -5.15625 4.1875 -5.59375 C 4.1875 -5.894531 4.09375 -6.148438 3.90625 -6.359375 C 3.726562 -6.578125 3.46875 -6.6875 3.125 -6.6875 C 2.820312 -6.6875 2.570312 -6.585938 2.375 -6.390625 C 2.175781 -6.203125 2.078125 -5.960938 2.078125 -5.671875 Z M 1.28125 -2.734375 C 1.125 -2.535156 1.003906 -2.304688 0.921875 -2.046875 C 0.847656 -1.785156 0.8125 -1.539062 0.8125 -1.3125 C 0.8125 -0.945312 0.925781 -0.65625 1.15625 -0.4375 C 1.394531 -0.226562 1.6875 -0.125 2.03125 -0.125 C 2.289062 -0.125 2.523438 -0.179688 2.734375 -0.296875 C 2.953125 -0.421875 3.125 -0.585938 3.25 -0.796875 C 3.375 -1.015625 3.4375 -1.25 3.4375 -1.5 C 3.4375 -1.789062 3.351562 -2.070312 3.1875 -2.34375 C 3.03125 -2.625 2.75 -3.003906 2.34375 -3.484375 C 1.914062 -3.316406 1.5625 -3.066406 1.28125 -2.734375 Z M 1.28125 -2.734375 "/></g></g></g><g fill="#000000" fill-opacity="1"><g transform="translate(220.276836, 312.442408)"><g><path d="M 2.90625 -4.109375 L 2.140625 -1.4375 L 2.65625 -1.4375 L 2.546875 -1.03125 L 2.015625 -1.03125 L 1.703125 0.09375 L 1.21875 0.09375 L 1.546875 -1.03125 L 0.078125 -1.03125 L 0.203125 -1.4375 L 2.6875 -4.109375 Z M 1.65625 -1.4375 L 2.1875 -3.265625 L 2.171875 -3.265625 L 0.5 -1.4375 Z M 1.65625 -1.4375 "/></g></g></g><g fill="#000000" fill-opacity="1"><g transform="translate(290.760923, 309.542411)"><g><path d="M 6.875 -5.265625 C 6.875 -4.847656 6.710938 -4.457031 6.390625 -4.09375 C 6.066406 -3.738281 5.570312 -3.488281 4.90625 -3.34375 L 6 -1.03125 C 6.132812 -0.738281 6.28125 -0.523438 6.4375 -0.390625 C 6.59375 -0.253906 6.816406 -0.1875 7.109375 -0.1875 L 7.046875 0 L 5.453125 0 L 3.90625 -3.28125 C 3.664062 -3.300781 3.507812 -3.316406 3.4375 -3.328125 C 3.414062 -3.328125 3.347656 -3.332031 3.234375 -3.34375 L 2.65625 -1.3125 C 2.632812 -1.257812 2.609375 -1.164062 2.578125 -1.03125 C 2.546875 -0.894531 2.53125 -0.78125 2.53125 -0.6875 C 2.53125 -0.476562 2.601562 -0.34375 2.75 -0.28125 C 2.894531 -0.21875 3.082031 -0.1875 3.3125 -0.1875 L 3.265625 0 L 0.25 0 L 0.296875 -0.1875 C 0.679688 -0.1875 0.957031 -0.234375 1.125 -0.328125 C 1.300781 -0.421875 1.4375 -0.625 1.53125 -0.9375 L 2.796875 -5.296875 C 2.859375 -5.535156 2.898438 -5.707031 2.921875 -5.8125 C 2.953125 -5.914062 2.96875 -5.992188 2.96875 -6.046875 C 2.96875 -6.265625 2.894531 -6.40625 2.75 -6.46875 C 2.601562 -6.53125 2.398438 -6.5625 2.140625 -6.5625 L 2.1875 -6.75 L 4.578125 -6.75 C 5.328125 -6.75 5.894531 -6.609375 6.28125 -6.328125 C 6.675781 -6.054688 6.875 -5.703125 6.875 -5.265625 Z M 4.09375 -6.34375 L 3.328125 -3.640625 C 3.523438 -3.597656 3.734375 -3.578125 3.953125 -3.578125 C 4.359375 -3.578125 4.695312 -3.65625 4.96875 -3.8125 C 5.238281 -3.976562 5.4375 -4.191406 5.5625 -4.453125 C 5.695312 -4.710938 5.765625 -4.984375 5.765625 -5.265625 C 5.765625 -5.640625 5.65625 -5.921875 5.4375 -6.109375 C 5.21875 -6.296875 4.929688 -6.390625 4.578125 -6.390625 C 4.472656 -6.390625 4.3125 -6.375 4.09375 -6.34375 Z M 4.09375 -6.34375 "/></g></g></g><g fill="#000000" fill-opacity="1"><g transform="translate(297.956235, 309.542411)"><g/></g></g><g fill="#000000" fill-opacity="1"><g transform="translate(300.455247, 309.542411)"><g/></g></g><g fill="#000000" fill-opacity="1"><g transform="translate(302.960141, 309.542411)"><g><path d="M 6.09375 -4.203125 L 0.8125 -4.203125 L 0.8125 -4.8125 L 6.09375 -4.8125 Z M 6.09375 -1.90625 L 0.8125 -1.90625 L 0.8125 -2.515625 L 6.09375 -2.515625 Z M 6.09375 -1.90625 "/></g></g></g><g fill="#000000" fill-opacity="1"><g transform="translate(309.627514, 309.542411)"><g/></g></g><g fill="#000000" fill-opacity="1"><g transform="translate(312.126526, 309.542411)"><g><path d="M 4.09375 -6.90625 L 2.4375 -1.078125 C 2.375 -0.890625 2.34375 -0.75 2.34375 -0.65625 C 2.34375 -0.457031 2.414062 -0.328125 2.5625 -0.265625 C 2.71875 -0.210938 2.910156 -0.1875 3.140625 -0.1875 L 3.09375 0 L 0.421875 0 L 0.40625 -0.1875 C 0.695312 -0.1875 0.921875 -0.222656 1.078125 -0.296875 C 1.234375 -0.378906 1.359375 -0.507812 1.453125 -0.6875 C 1.546875 -0.875 1.648438 -1.164062 1.765625 -1.5625 L 2.796875 -5.1875 C 2.804688 -5.238281 2.835938 -5.351562 2.890625 -5.53125 C 2.941406 -5.707031 2.96875 -5.847656 2.96875 -5.953125 C 2.96875 -6.078125 2.925781 -6.171875 2.84375 -6.234375 C 2.769531 -6.304688 2.6875 -6.34375 2.59375 -6.34375 C 2.488281 -6.34375 2.335938 -6.316406 2.140625 -6.265625 L 2.0625 -6.4375 L 3.9375 -6.90625 Z M 4.09375 -6.90625 "/></g></g></g><g fill="#000000" fill-opacity="1"><g transform="translate(317.12455, 309.542411)"><g><path d="M 5.078125 -6.90625 L 5.03125 -6.75 C 3.8125 -6.46875 2.75 -5.625 1.84375 -4.21875 L 1.859375 -4.203125 C 2.023438 -4.273438 2.175781 -4.332031 2.3125 -4.375 C 2.457031 -4.425781 2.617188 -4.453125 2.796875 -4.453125 C 3.066406 -4.453125 3.320312 -4.382812 3.5625 -4.25 C 3.800781 -4.113281 3.992188 -3.910156 4.140625 -3.640625 C 4.285156 -3.378906 4.359375 -3.066406 4.359375 -2.703125 C 4.359375 -2.234375 4.238281 -1.773438 4 -1.328125 C 3.769531 -0.890625 3.460938 -0.53125 3.078125 -0.25 C 2.703125 0.0195312 2.304688 0.15625 1.890625 0.15625 C 1.503906 0.15625 1.1875 0.046875 0.9375 -0.171875 C 0.6875 -0.398438 0.503906 -0.679688 0.390625 -1.015625 C 0.273438 -1.359375 0.21875 -1.703125 0.21875 -2.046875 C 0.21875 -2.765625 0.425781 -3.484375 0.84375 -4.203125 C 1.269531 -4.929688 1.851562 -5.539062 2.59375 -6.03125 C 3.34375 -6.519531 4.171875 -6.8125 5.078125 -6.90625 Z M 1.625 -3.796875 C 1.332031 -3.253906 1.140625 -2.765625 1.046875 -2.328125 C 0.960938 -1.898438 0.921875 -1.566406 0.921875 -1.328125 C 0.921875 -0.972656 1 -0.675781 1.15625 -0.4375 C 1.320312 -0.207031 1.550781 -0.09375 1.84375 -0.09375 C 2.164062 -0.09375 2.445312 -0.234375 2.6875 -0.515625 C 2.9375 -0.804688 3.125 -1.164062 3.25 -1.59375 C 3.382812 -2.019531 3.453125 -2.425781 3.453125 -2.8125 C 3.453125 -3.1875 3.359375 -3.5 3.171875 -3.75 C 2.992188 -4 2.757812 -4.125 2.46875 -4.125 C 2.1875 -4.125 1.90625 -4.015625 1.625 -3.796875 Z M 1.625 -3.796875 "/></g></g></g><g fill="#000000" fill-opacity="1"><g transform="translate(298.143619, 312.442408)"><g><path d="M 2.71875 -3.578125 L 1.453125 -3.578125 L 1.21875 -3.078125 C 1.625 -3.023438 1.925781 -2.867188 2.125 -2.609375 C 2.332031 -2.347656 2.4375 -2.050781 2.4375 -1.71875 C 2.4375 -1.40625 2.351562 -1.109375 2.1875 -0.828125 C 2.019531 -0.546875 1.800781 -0.320312 1.53125 -0.15625 C 1.269531 0.0078125 1 0.09375 0.71875 0.09375 C 0.5625 0.09375 0.414062 0.0625 0.28125 0 C 0.15625 -0.0625 0.09375 -0.15625 0.09375 -0.28125 C 0.09375 -0.351562 0.113281 -0.410156 0.15625 -0.453125 C 0.207031 -0.492188 0.269531 -0.515625 0.34375 -0.515625 C 0.40625 -0.515625 0.457031 -0.5 0.5 -0.46875 C 0.550781 -0.445312 0.613281 -0.410156 0.6875 -0.359375 C 0.75 -0.304688 0.804688 -0.265625 0.859375 -0.234375 C 0.921875 -0.210938 0.988281 -0.203125 1.0625 -0.203125 C 1.238281 -0.203125 1.398438 -0.257812 1.546875 -0.375 C 1.703125 -0.488281 1.820312 -0.640625 1.90625 -0.828125 C 2 -1.023438 2.046875 -1.226562 2.046875 -1.4375 C 2.046875 -1.65625 1.992188 -1.851562 1.890625 -2.03125 C 1.785156 -2.207031 1.644531 -2.347656 1.46875 -2.453125 C 1.300781 -2.554688 1.101562 -2.609375 0.875 -2.609375 L 0.828125 -2.609375 L 1.453125 -4.046875 L 2.859375 -4.046875 Z M 2.71875 -3.578125 "/></g></g></g><path stroke-linecap="butt" transform="matrix(-0.467617, 0.586373, -0.586373, -0.467617, 159.562273, 218.55192)" fill="none" stroke-linejoin="miter" d="M -0.00214721 0.500954 L 76.44094 0.500912 " stroke="#000000" stroke-width="0.5" stroke-opacity="1" stroke-miterlimit="4"/><path stroke-linecap="butt" transform="matrix(-0.730125, 0.171517, -0.171517, -0.730125, 184.380945, 249.618207)" fill="none" stroke-linejoin="miter" d="M -0.00195886 0.498496 L 83.121734 0.502856 " stroke="#000000" stroke-width="0.5" stroke-opacity="1" stroke-miterlimit="4"/><path stroke-linecap="butt" transform="matrix(-0.470575, -0.584003, 0.584003, -0.470575, 184.002825, 249.4835)" fill="none" stroke-linejoin="miter" d="M -0.000301898 0.496575 L 52.576068 0.50143 " stroke="#000000" stroke-width="0.5" stroke-opacity="1" stroke-miterlimit="4"/><path stroke-linecap="butt" transform="matrix(-0.740024, 0.12192, -0.12192, -0.740024, 252.089081, 231.02272)" fill="none" stroke-linejoin="miter" d="M 0.000943479 0.500648 L 76.439757 0.499407 " stroke="#000000" stroke-width="0.5" stroke-opacity="1" stroke-miterlimit="4"/><path stroke-linecap="butt" transform="matrix(-0.735924, 0.144622, -0.144622, -0.735924, 253.830369, 265.900677)" fill="none" stroke-linejoin="miter" d="M -0.0000546684 0.50198 L 64.443868 0.501542 " stroke="#000000" stroke-width="0.5" stroke-opacity="1" stroke-miterlimit="4"/><path stroke-linecap="butt" transform="matrix(0.223226, 0.71601, -0.71601, 0.223226, 195.817448, 239.864663)" fill="none" stroke-linejoin="miter" d="M 0.000957862 0.498212 L 48.7127 0.501905 " stroke="#000000" stroke-width="0.5" stroke-opacity="1" stroke-miterlimit="4"/><path stroke-linecap="butt" transform="matrix(0.0372638, 0.749074, -0.749074, 0.0372638, 252.029081, 230.615697)" fill="none" stroke-linejoin="miter" d="M -0.00190613 0.497628 L 46.565966 0.498854 " stroke="#000000" stroke-width="0.5" stroke-opacity="1" stroke-miterlimit="4"/><path stroke-linecap="butt" transform="matrix(0.686253, 0.302583, -0.302583, 0.686253, 195.613688, 239.629671)" fill="none" stroke-linejoin="miter" d="M -0.00185685 0.500612 L 84.412912 0.501337 " stroke="#000000" stroke-width="0.5" stroke-opacity="1" stroke-miterlimit="4"/><path stroke-linecap="butt" transform="matrix(-0.536912, 0.523665, -0.523665, -0.536912, 251.907643, 230.924721)" fill="none" stroke-linejoin="miter" d="M 0.00120728 0.501205 L 84.403928 0.500381 " stroke="#000000" stroke-width="0.5" stroke-opacity="1" stroke-miterlimit="4"/><path stroke-linecap="butt" transform="matrix(0.53033, 0.53033, -0.53033, 0.53033, 274.32649, 249.222053)" fill="none" stroke-linejoin="miter" d="M 0.00210956 0.499895 L 60.629154 0.499895 " stroke="#000000" stroke-width="0.5" stroke-opacity="1" stroke-miterlimit="4"/><path stroke-linecap="butt" transform="matrix(0.405733, -0.630778, 0.630778, 0.405733, 273.745943, 249.28308)" fill="none" stroke-linejoin="miter" d="M 0.00260534 0.500177 L 45.58084 0.49956 " stroke="#000000" stroke-width="0.5" stroke-opacity="1" stroke-miterlimit="4"/><path stroke-linecap="butt" transform="matrix(-0.727929, -0.180607, 0.180607, -0.727929, 332.432414, 231.016348)" fill="none" stroke-linejoin="miter" d="M -0.000919128 0.500282 L 54.906958 0.501954 " stroke="#000000" stroke-width="0.5" stroke-opacity="1" stroke-miterlimit="4"/><path stroke-linecap="butt" transform="matrix(0.0699474, 0.746731, -0.746731, 0.0699474, 332.522913, 230.63398)" fill="none" stroke-linejoin="miter" d="M -0.00144565 0.501351 L 43.500676 0.501205 " stroke="#000000" stroke-width="0.5" stroke-opacity="1" stroke-miterlimit="4"/><path stroke-linecap="butt" transform="matrix(-0.632161, 0.403575, -0.403575, -0.632161, 335.386214, 263.457933)" fill="none" stroke-linejoin="miter" d="M 0.0000544656 0.501977 L 45.838251 0.500648 " stroke="#000000" stroke-width="0.5" stroke-opacity="1" stroke-miterlimit="4"/><path stroke-linecap="butt" transform="matrix(0.160363, 0.732655, -0.732655, 0.160363, 293.273481, 220.779331)" fill="none" stroke-linejoin="miter" d="M -0.000436858 0.501138 L 82.965158 0.501036 " stroke="#000000" stroke-width="0.5" stroke-opacity="1" stroke-miterlimit="4"/><path stroke-linecap="butt" transform="matrix(-0.713495, 0.231137, -0.231137, -0.713495, 332.260089, 231.026483)" fill="none" stroke-linejoin="miter" d="M -0.000739291 0.502237 L 81.415988 0.499543 " stroke="#000000" stroke-width="0.5" stroke-opacity="1" stroke-miterlimit="4"/><path stroke-linecap="butt" transform="matrix(0.731966, 0.163479, -0.163479, 0.731966, 274.143356, 249.12054)" fill="none" stroke-linejoin="miter" d="M 0.0016603 0.502031 L 83.514856 0.501622 " stroke="#000000" stroke-width="0.5" stroke-opacity="1" stroke-miterlimit="4"/><path stroke-linecap="butt" transform="matrix(-0.340124, 0.668443, -0.668443, -0.340124, 332.48254, 230.839746)" fill="none" stroke-linejoin="miter" d="M -0.00211082 0.500897 L 76.252003 0.497558 " stroke="#000000" stroke-width="0.5" stroke-opacity="1" stroke-miterlimit="4"/><path stroke-linecap="butt" transform="matrix(0.529567, 0.531092, -0.531092, 0.529567, 293.174047, 220.474805)" fill="none" stroke-linejoin="miter" d="M 0.000324265 0.497207 L 79.844557 0.500295 " stroke="#000000" stroke-width="0.5" stroke-opacity="1" stroke-miterlimit="4"/></svg>