<svg xmlns="http://www.w3.org/2000/svg" xmlns:xlink="http://www.w3.org/1999/xlink" width="920" zoomAndPan="magnify" viewBox="90 180 200 150" height="460" preserveAspectRatio="xMidYMid meet" version="1.0"><defs><g/><clipPath id="73d2ec22cd"><path d="M 144 199 L 231 199 L 231 286 L 144 286 Z M 144 199 " clip-rule="nonzero"/></clipPath><clipPath id="91856222b0"><path d="M 221.273438 192.105469 L 237.800781 275.992188 L 153.914062 292.523438 L 137.386719 208.636719 Z M 221.273438 192.105469 " clip-rule="nonzero"/></clipPath><clipPath id="f795c84880"><path d="M 221.273438 192.105469 L 237.800781 275.992188 L 153.914062 292.523438 L 137.386719 208.636719 Z M 221.273438 192.105469 " clip-rule="nonzero"/></clipPath><clipPath id="c6d7b0e956"><path d="M 221.273438 192.105469 L 237.800781 275.992188 L 153.914062 292.523438 L 137.386719 208.636719 Z M 221.273438 192.105469 " clip-rule="nonzero"/></clipPath></defs><g clip-path="url(#73d2ec22cd)"><g clip-path="url(#91856222b0)"><g clip-path="url(#f795c84880)"><g clip-path="url(#c6d7b0e956)"><path fill="#000000" d="M 145.648438 250.582031 C 141.09375 227.460938 156.207031 204.929688 179.328125 200.371094 C 202.449219 195.816406 224.980469 210.929688 229.535156 234.050781 C 234.09375 257.171875 218.980469 279.703125 195.859375 284.257812 C 172.738281 288.816406 150.207031 273.699219 145.648438 250.582031 Z M 228.917969 234.171875 C 224.425781 211.382812 202.242188 196.5 179.449219 200.992188 C 156.660156 205.484375 141.777344 227.667969 146.269531 250.457031 C 150.761719 273.25 172.945312 288.128906 195.734375 283.640625 C 218.527344 279.148438 233.40625 256.960938 228.917969 234.171875 Z M 228.917969 234.171875 " fill-opacity="1" fill-rule="nonzero"/></g></g></g></g><path stroke-linecap="butt" transform="matrix(-0.416255, 0.623884, -0.623884, -0.416255, 163.89644, 207.174243)" fill="none" stroke-linejoin="miter" d="M -0.00247615 0.499345 L 43.613722 0.500621 " stroke="#000000" stroke-width="0.5" stroke-opacity="1" stroke-miterlimit="4"/><g fill="#000000" fill-opacity="1"><g transform="translate(170.730939, 317.1197)"><g><path d="M 7.359375 -5.625 C 7.359375 -5.175781 7.179688 -4.757812 6.828125 -4.375 C 6.484375 -4 5.953125 -3.734375 5.234375 -3.578125 L 6.40625 -1.09375 C 6.5625 -0.78125 6.71875 -0.550781 6.875 -0.40625 C 7.039062 -0.269531 7.28125 -0.195312 7.59375 -0.1875 L 7.53125 0 L 5.828125 0 L 4.171875 -3.5 C 3.910156 -3.519531 3.742188 -3.539062 3.671875 -3.5625 C 3.648438 -3.5625 3.582031 -3.566406 3.46875 -3.578125 L 2.84375 -1.40625 C 2.820312 -1.351562 2.789062 -1.253906 2.75 -1.109375 C 2.71875 -0.960938 2.703125 -0.835938 2.703125 -0.734375 C 2.703125 -0.515625 2.78125 -0.367188 2.9375 -0.296875 C 3.09375 -0.222656 3.296875 -0.1875 3.546875 -0.1875 L 3.5 0 L 0.265625 0 L 0.328125 -0.1875 C 0.734375 -0.1875 1.023438 -0.238281 1.203125 -0.34375 C 1.390625 -0.445312 1.535156 -0.664062 1.640625 -1 L 2.984375 -5.671875 C 3.054688 -5.910156 3.101562 -6.085938 3.125 -6.203125 C 3.15625 -6.316406 3.171875 -6.40625 3.171875 -6.46875 C 3.171875 -6.695312 3.09375 -6.84375 2.9375 -6.90625 C 2.78125 -6.976562 2.5625 -7.015625 2.28125 -7.015625 L 2.34375 -7.21875 L 4.890625 -7.21875 C 5.691406 -7.21875 6.300781 -7.066406 6.71875 -6.765625 C 7.144531 -6.472656 7.359375 -6.09375 7.359375 -5.625 Z M 4.375 -6.78125 L 3.5625 -3.890625 C 3.769531 -3.847656 3.992188 -3.828125 4.234375 -3.828125 C 4.660156 -3.828125 5.019531 -3.910156 5.3125 -4.078125 C 5.601562 -4.253906 5.816406 -4.476562 5.953125 -4.75 C 6.097656 -5.03125 6.171875 -5.320312 6.171875 -5.625 C 6.171875 -6.03125 6.050781 -6.332031 5.8125 -6.53125 C 5.582031 -6.726562 5.273438 -6.828125 4.890625 -6.828125 C 4.773438 -6.828125 4.601562 -6.8125 4.375 -6.78125 Z M 4.375 -6.78125 "/></g></g></g><g fill="#000000" fill-opacity="1"><g transform="translate(178.420018, 317.1197)"><g/></g></g><g fill="#000000" fill-opacity="1"><g transform="translate(181.090521, 317.1197)"><g/></g></g><g fill="#000000" fill-opacity="1"><g transform="translate(183.767309, 317.1197)"><g><path d="M 6.515625 -4.5 L 0.859375 -4.5 L 0.859375 -5.15625 L 6.515625 -5.15625 Z M 6.515625 -2.03125 L 0.859375 -2.03125 L 0.859375 -2.6875 L 6.515625 -2.6875 Z M 6.515625 -2.03125 "/></g></g></g><g fill="#000000" fill-opacity="1"><g transform="translate(190.892221, 317.1197)"><g/></g></g><g fill="#000000" fill-opacity="1"><g transform="translate(193.562723, 317.1197)"><g><path d="M 3.34375 -7.375 C 3.757812 -7.375 4.109375 -7.242188 4.390625 -6.984375 C 4.679688 -6.734375 4.828125 -6.410156 4.828125 -6.015625 C 4.828125 -5.578125 4.660156 -5.21875 4.328125 -4.9375 C 4.003906 -4.65625 3.582031 -4.445312 3.0625 -4.3125 C 3.789062 -3.914062 4.15625 -3.328125 4.15625 -2.546875 C 4.15625 -2.078125 4.035156 -1.632812 3.796875 -1.21875 C 3.554688 -0.800781 3.21875 -0.46875 2.78125 -0.21875 C 2.34375 0.03125 1.847656 0.15625 1.296875 0.15625 C 0.960938 0.15625 0.671875 0.113281 0.421875 0.03125 C 0.171875 -0.0507812 0.046875 -0.203125 0.046875 -0.421875 C 0.046875 -0.554688 0.0976562 -0.664062 0.203125 -0.75 C 0.304688 -0.832031 0.421875 -0.875 0.546875 -0.875 C 0.671875 -0.875 0.789062 -0.847656 0.90625 -0.796875 C 1.03125 -0.753906 1.179688 -0.6875 1.359375 -0.59375 C 1.523438 -0.5 1.660156 -0.425781 1.765625 -0.375 C 1.878906 -0.332031 1.992188 -0.3125 2.109375 -0.3125 C 2.328125 -0.3125 2.523438 -0.390625 2.703125 -0.546875 C 2.890625 -0.710938 3.035156 -0.929688 3.140625 -1.203125 C 3.242188 -1.472656 3.296875 -1.765625 3.296875 -2.078125 C 3.296875 -2.660156 3.117188 -3.109375 2.765625 -3.421875 C 2.410156 -3.742188 1.941406 -3.90625 1.359375 -3.90625 L 1.34375 -4.09375 C 1.65625 -4.125 2.007812 -4.203125 2.40625 -4.328125 C 2.800781 -4.453125 3.148438 -4.640625 3.453125 -4.890625 C 3.753906 -5.148438 3.90625 -5.472656 3.90625 -5.859375 C 3.90625 -6.160156 3.804688 -6.398438 3.609375 -6.578125 C 3.421875 -6.765625 3.191406 -6.859375 2.921875 -6.859375 C 2.703125 -6.859375 2.5 -6.789062 2.3125 -6.65625 C 2.125 -6.519531 1.96875 -6.347656 1.84375 -6.140625 L 1.671875 -6.21875 C 2.054688 -6.988281 2.613281 -7.375 3.34375 -7.375 Z M 3.34375 -7.375 "/></g></g></g><g fill="#000000" fill-opacity="1"><g transform="translate(198.903728, 317.1197)"><g><path d="M 4.375 -7.390625 L 2.59375 -1.15625 C 2.539062 -0.957031 2.515625 -0.800781 2.515625 -0.6875 C 2.515625 -0.488281 2.59375 -0.351562 2.75 -0.28125 C 2.914062 -0.21875 3.117188 -0.1875 3.359375 -0.1875 L 3.296875 0 L 0.453125 0 L 0.421875 -0.1875 C 0.742188 -0.1875 0.988281 -0.226562 1.15625 -0.3125 C 1.320312 -0.40625 1.453125 -0.546875 1.546875 -0.734375 C 1.648438 -0.929688 1.757812 -1.242188 1.875 -1.671875 L 3 -5.546875 C 3.007812 -5.597656 3.039062 -5.71875 3.09375 -5.90625 C 3.144531 -6.09375 3.171875 -6.25 3.171875 -6.375 C 3.171875 -6.5 3.128906 -6.597656 3.046875 -6.671875 C 2.960938 -6.742188 2.867188 -6.78125 2.765625 -6.78125 C 2.648438 -6.78125 2.488281 -6.753906 2.28125 -6.703125 L 2.21875 -6.875 L 4.203125 -7.390625 Z M 4.375 -7.390625 "/></g></g></g><g fill="#000000" fill-opacity="1"><g transform="translate(178.519808, 319.680705)"><g><path d="M 2.984375 -4.0625 L 2.953125 -3.96875 C 2.234375 -3.800781 1.609375 -3.304688 1.078125 -2.484375 L 1.09375 -2.46875 C 1.1875 -2.507812 1.273438 -2.546875 1.359375 -2.578125 C 1.441406 -2.609375 1.535156 -2.625 1.640625 -2.625 C 1.796875 -2.625 1.941406 -2.582031 2.078125 -2.5 C 2.222656 -2.414062 2.335938 -2.296875 2.421875 -2.140625 C 2.515625 -1.984375 2.5625 -1.800781 2.5625 -1.59375 C 2.5625 -1.3125 2.488281 -1.039062 2.34375 -0.78125 C 2.207031 -0.519531 2.023438 -0.304688 1.796875 -0.140625 C 1.578125 0.015625 1.347656 0.09375 1.109375 0.09375 C 0.878906 0.09375 0.691406 0.0234375 0.546875 -0.109375 C 0.398438 -0.242188 0.289062 -0.410156 0.21875 -0.609375 C 0.15625 -0.804688 0.125 -1.003906 0.125 -1.203125 C 0.125 -1.617188 0.25 -2.039062 0.5 -2.46875 C 0.75 -2.894531 1.09375 -3.253906 1.53125 -3.546875 C 1.96875 -3.835938 2.453125 -4.007812 2.984375 -4.0625 Z M 0.953125 -2.234375 C 0.773438 -1.910156 0.660156 -1.617188 0.609375 -1.359375 C 0.566406 -1.109375 0.546875 -0.914062 0.546875 -0.78125 C 0.546875 -0.570312 0.59375 -0.398438 0.6875 -0.265625 C 0.78125 -0.128906 0.910156 -0.0625 1.078125 -0.0625 C 1.273438 -0.0625 1.441406 -0.144531 1.578125 -0.3125 C 1.722656 -0.476562 1.832031 -0.6875 1.90625 -0.9375 C 1.988281 -1.1875 2.03125 -1.425781 2.03125 -1.65625 C 2.03125 -1.875 1.972656 -2.054688 1.859375 -2.203125 C 1.753906 -2.347656 1.617188 -2.421875 1.453125 -2.421875 C 1.285156 -2.421875 1.117188 -2.359375 0.953125 -2.234375 Z M 0.953125 -2.234375 "/></g></g></g><path stroke-linecap="butt" transform="matrix(0.749983, -0.00498565, 0.00498565, 0.749983, 163.583358, 206.590417)" fill="none" stroke-linejoin="miter" d="M 0.00012089 0.499248 L 63.084835 0.501939 " stroke="#000000" stroke-width="0.5" stroke-opacity="1" stroke-miterlimit="4"/><path stroke-linecap="butt" transform="matrix(-0.389064, -0.641194, 0.641194, -0.389064, 174.836244, 283.36381)" fill="none" stroke-linejoin="miter" d="M 0.00190164 0.500232 L 76.420646 0.502242 " stroke="#000000" stroke-width="0.5" stroke-opacity="1" stroke-miterlimit="4"/><path stroke-linecap="butt" transform="matrix(-0.729742, 0.173139, -0.173139, -0.729742, 217.005561, 273.630803)" fill="none" stroke-linejoin="miter" d="M 0.0012331 0.500713 L 57.22986 0.498432 " stroke="#000000" stroke-width="0.5" stroke-opacity="1" stroke-miterlimit="4"/><path stroke-linecap="butt" transform="matrix(0.230779, -0.713611, 0.713611, 0.230779, 216.565507, 273.144827)" fill="none" stroke-linejoin="miter" d="M -0.00208591 0.500061 L 54.780018 0.497389 " stroke="#000000" stroke-width="0.5" stroke-opacity="1" stroke-miterlimit="4"/><path stroke-linecap="butt" transform="matrix(-0.42103, -0.620672, 0.620672, -0.42103, 229.257148, 234.384359)" fill="none" stroke-linejoin="miter" d="M -0.00133078 0.497361 L 44.341431 0.50002 " stroke="#000000" stroke-width="0.5" stroke-opacity="1" stroke-miterlimit="4"/><path stroke-linecap="butt" transform="matrix(-0.658055, -0.35981, 0.35981, -0.658055, 216.743765, 273.593536)" fill="none" stroke-linejoin="miter" d="M 0.0013849 0.497545 L 108.645179 0.501564 " stroke="#000000" stroke-width="0.5" stroke-opacity="1" stroke-miterlimit="4"/><path stroke-linecap="butt" transform="matrix(-0.75, -0.000000001309, 0.000000001309, -0.75, 229.561175, 234.549009)" fill="none" stroke-linejoin="miter" d="M -0.00176663 0.497636 L 112.180532 0.497636 " stroke="#000000" stroke-width="0.5" stroke-opacity="1" stroke-miterlimit="4"/><path stroke-linecap="butt" transform="matrix(-0.691297, 0.290874, -0.290874, -0.691297, 211.120918, 206.939048)" fill="none" stroke-linejoin="miter" d="M -0.00114823 0.49901 L 94.826751 0.50042 " stroke="#000000" stroke-width="0.5" stroke-opacity="1" stroke-miterlimit="4"/><path stroke-linecap="butt" transform="matrix(-0.470133, -0.584359, 0.584359, -0.470133, 216.631133, 273.498966)" fill="none" stroke-linejoin="miter" d="M -0.000591419 0.497065 L 113.457641 0.498094 " stroke="#000000" stroke-width="0.5" stroke-opacity="1" stroke-miterlimit="4"/><path stroke-linecap="butt" transform="matrix(-0.066553, -0.747041, 0.747041, -0.066553, 216.552105, 273.298225)" fill="none" stroke-linejoin="miter" d="M -0.000916435 0.500126 L 89.252387 0.498339 " stroke="#000000" stroke-width="0.5" stroke-opacity="1" stroke-miterlimit="4"/><path stroke-linecap="butt" transform="matrix(0.31733, -0.67956, 0.67956, 0.31733, 174.821712, 283.010489)" fill="none" stroke-linejoin="miter" d="M 0.000678877 0.497717 L 112.6037 0.500723 " stroke="#000000" stroke-width="0.5" stroke-opacity="1" stroke-miterlimit="4"/><path stroke-linecap="butt" transform="matrix(-0.112655, -0.741491, 0.741491, -0.112655, 174.788578, 283.225645)" fill="none" stroke-linejoin="miter" d="M 0.00161061 0.501368 L 102.777011 0.501413 " stroke="#000000" stroke-width="0.5" stroke-opacity="1" stroke-miterlimit="4"/><path stroke-linecap="butt" transform="matrix(-0.693362, -0.285919, 0.285919, -0.693362, 229.420405, 234.519829)" fill="none" stroke-linejoin="miter" d="M 0.00171329 0.50113 L 95.161419 0.499827 " stroke="#000000" stroke-width="0.5" stroke-opacity="1" stroke-miterlimit="4"/><path stroke-linecap="butt" transform="matrix(0.557286, -0.501929, 0.501929, 0.557286, 174.911962, 282.891661)" fill="none" stroke-linejoin="miter" d="M -0.000276523 0.502571 L 97.621359 0.500973 " stroke="#000000" stroke-width="0.5" stroke-opacity="1" stroke-miterlimit="4"/></svg>